<svg xmlns="http://www.w3.org/2000/svg" xmlns:xlink="http://www.w3.org/1999/xlink" zoomAndPan="magnify" preserveAspectRatio="xMidYMid meet" version="1.0" viewBox="63.16 138.67 247.93 83.15"><defs><g></g></defs><g fill="#000000" fill-opacity="1"><g transform="translate(75.824245, 190.744178)"><g><path d="M 18.453125 -11.390625 C 19.660156 -10.992188 20.617188 -10.332031 21.328125 -9.40625 C 22.035156 -8.476562 22.390625 -7.320312 22.390625 -5.9375 C 22.390625 -4.039062 21.660156 -2.578125 20.203125 -1.546875 C 18.742188 -0.515625 16.617188 0 13.828125 0 L 2.9375 0 L 2.9375 -21.890625 L 13.203125 -21.890625 C 15.785156 -21.890625 17.773438 -21.382812 19.171875 -20.375 C 20.566406 -19.363281 21.265625 -17.972656 21.265625 -16.203125 C 21.265625 -15.117188 21.015625 -14.160156 20.515625 -13.328125 C 20.015625 -12.492188 19.328125 -11.847656 18.453125 -11.390625 Z M 7 -18.703125 L 7 -12.671875 L 12.765625 -12.671875 C 14.179688 -12.671875 15.269531 -12.925781 16.03125 -13.4375 C 16.789062 -13.945312 17.171875 -14.691406 17.171875 -15.671875 C 17.171875 -16.671875 16.789062 -17.425781 16.03125 -17.9375 C 15.269531 -18.445312 14.179688 -18.703125 12.765625 -18.703125 Z M 13.578125 -3.1875 C 16.722656 -3.1875 18.296875 -4.238281 18.296875 -6.34375 C 18.296875 -8.457031 16.722656 -9.515625 13.578125 -9.515625 L 7 -9.515625 L 7 -3.1875 Z M 13.578125 -3.1875 "></path></g></g></g><g fill="#000000" fill-opacity="1"><g transform="translate(99.61738, 190.744178)"><g><path d="M 2.9375 -21.890625 L 7 -21.890625 L 7 -3.4375 L 18.453125 -3.4375 L 18.453125 0 L 2.9375 0 Z M 2.9375 -21.890625 "></path></g></g></g><g fill="#000000" fill-opacity="1"><g transform="translate(118.345486, 190.744178)"><g><path d="M 13.171875 0.3125 C 10.941406 0.3125 8.925781 -0.171875 7.125 -1.140625 C 5.332031 -2.109375 3.925781 -3.453125 2.90625 -5.171875 C 1.882812 -6.890625 1.375 -8.816406 1.375 -10.953125 C 1.375 -13.078125 1.882812 -15 2.90625 -16.71875 C 3.925781 -18.4375 5.332031 -19.78125 7.125 -20.75 C 8.925781 -21.71875 10.941406 -22.203125 13.171875 -22.203125 C 15.398438 -22.203125 17.410156 -21.71875 19.203125 -20.75 C 20.992188 -19.78125 22.398438 -18.441406 23.421875 -16.734375 C 24.453125 -15.023438 24.96875 -13.097656 24.96875 -10.953125 C 24.96875 -8.796875 24.453125 -6.863281 23.421875 -5.15625 C 22.398438 -3.445312 20.992188 -2.109375 19.203125 -1.140625 C 17.410156 -0.171875 15.398438 0.3125 13.171875 0.3125 Z M 13.171875 -3.25 C 14.628906 -3.25 15.941406 -3.578125 17.109375 -4.234375 C 18.273438 -4.890625 19.191406 -5.804688 19.859375 -6.984375 C 20.523438 -8.171875 20.859375 -9.492188 20.859375 -10.953125 C 20.859375 -12.410156 20.523438 -13.726562 19.859375 -14.90625 C 19.191406 -16.082031 18.273438 -17 17.109375 -17.65625 C 15.941406 -18.3125 14.628906 -18.640625 13.171875 -18.640625 C 11.710938 -18.640625 10.394531 -18.3125 9.21875 -17.65625 C 8.050781 -17 7.132812 -16.082031 6.46875 -14.90625 C 5.800781 -13.726562 5.46875 -12.410156 5.46875 -10.953125 C 5.46875 -9.492188 5.800781 -8.171875 6.46875 -6.984375 C 7.132812 -5.804688 8.050781 -4.890625 9.21875 -4.234375 C 10.394531 -3.578125 11.710938 -3.25 13.171875 -3.25 Z M 13.171875 -3.25 "></path></g></g></g><g fill="#000000" fill-opacity="1"><g transform="translate(144.67113, 190.744178)"><g><path d="M 13.078125 0.3125 C 10.867188 0.3125 8.867188 -0.171875 7.078125 -1.140625 C 5.296875 -2.109375 3.898438 -3.445312 2.890625 -5.15625 C 1.878906 -6.863281 1.375 -8.796875 1.375 -10.953125 C 1.375 -13.097656 1.882812 -15.023438 2.90625 -16.734375 C 3.925781 -18.441406 5.328125 -19.78125 7.109375 -20.75 C 8.898438 -21.71875 10.898438 -22.203125 13.109375 -22.203125 C 14.898438 -22.203125 16.535156 -21.890625 18.015625 -21.265625 C 19.492188 -20.640625 20.742188 -19.734375 21.765625 -18.546875 L 19.140625 -16.078125 C 17.554688 -17.785156 15.609375 -18.640625 13.296875 -18.640625 C 11.796875 -18.640625 10.445312 -18.3125 9.25 -17.65625 C 8.0625 -17 7.132812 -16.085938 6.46875 -14.921875 C 5.800781 -13.753906 5.46875 -12.429688 5.46875 -10.953125 C 5.46875 -9.472656 5.800781 -8.144531 6.46875 -6.96875 C 7.132812 -5.800781 8.0625 -4.890625 9.25 -4.234375 C 10.445312 -3.578125 11.796875 -3.25 13.296875 -3.25 C 15.609375 -3.25 17.554688 -4.113281 19.140625 -5.84375 L 21.765625 -3.34375 C 20.742188 -2.15625 19.488281 -1.25 18 -0.625 C 16.507812 0 14.867188 0.3125 13.078125 0.3125 Z M 13.078125 0.3125 "></path></g></g></g><g fill="#000000" fill-opacity="1"><g transform="translate(167.401234, 190.744178)"><g><path d="M 10.484375 -9.171875 L 7 -5.59375 L 7 0 L 2.9375 0 L 2.9375 -21.890625 L 7 -21.890625 L 7 -10.671875 L 17.828125 -21.890625 L 22.390625 -21.890625 L 13.203125 -12.109375 L 22.953125 0 L 18.203125 0 Z M 10.484375 -9.171875 "></path></g></g></g><g fill="#000000" fill-opacity="1"><g transform="translate(190.193869, 190.744178)"><g><path d="M 9.734375 0.3125 C 8.035156 0.3125 6.398438 0.0703125 4.828125 -0.40625 C 3.253906 -0.882812 2.007812 -1.519531 1.09375 -2.3125 L 2.5 -5.46875 C 3.394531 -4.757812 4.492188 -4.179688 5.796875 -3.734375 C 7.097656 -3.285156 8.410156 -3.0625 9.734375 -3.0625 C 11.359375 -3.0625 12.570312 -3.320312 13.375 -3.84375 C 14.175781 -4.363281 14.578125 -5.050781 14.578125 -5.90625 C 14.578125 -6.53125 14.351562 -7.046875 13.90625 -7.453125 C 13.457031 -7.867188 12.890625 -8.191406 12.203125 -8.421875 C 11.515625 -8.648438 10.578125 -8.910156 9.390625 -9.203125 C 7.710938 -9.597656 6.359375 -9.992188 5.328125 -10.390625 C 4.296875 -10.785156 3.410156 -11.40625 2.671875 -12.25 C 1.929688 -13.09375 1.5625 -14.234375 1.5625 -15.671875 C 1.5625 -16.878906 1.890625 -17.976562 2.546875 -18.96875 C 3.203125 -19.957031 4.191406 -20.742188 5.515625 -21.328125 C 6.835938 -21.910156 8.460938 -22.203125 10.390625 -22.203125 C 11.722656 -22.203125 13.035156 -22.035156 14.328125 -21.703125 C 15.617188 -21.367188 16.734375 -20.890625 17.671875 -20.265625 L 16.390625 -17.109375 C 15.429688 -17.671875 14.429688 -18.097656 13.390625 -18.390625 C 12.347656 -18.679688 11.335938 -18.828125 10.359375 -18.828125 C 8.753906 -18.828125 7.554688 -18.554688 6.765625 -18.015625 C 5.984375 -17.472656 5.59375 -16.753906 5.59375 -15.859375 C 5.59375 -15.234375 5.816406 -14.722656 6.265625 -14.328125 C 6.710938 -13.929688 7.28125 -13.617188 7.96875 -13.390625 C 8.664062 -13.160156 9.609375 -12.898438 10.796875 -12.609375 C 12.421875 -12.234375 13.753906 -11.84375 14.796875 -11.4375 C 15.835938 -11.03125 16.726562 -10.410156 17.46875 -9.578125 C 18.207031 -8.742188 18.578125 -7.613281 18.578125 -6.1875 C 18.578125 -4.976562 18.25 -3.882812 17.59375 -2.90625 C 16.9375 -1.925781 15.941406 -1.144531 14.609375 -0.5625 C 13.273438 0.0195312 11.648438 0.3125 9.734375 0.3125 Z M 9.734375 0.3125 "></path></g></g></g><g fill="#000000" fill-opacity="1"><g transform="translate(209.859945, 190.744178)"><g><path d="M 7.375 -18.453125 L 0.125 -18.453125 L 0.125 -21.890625 L 18.703125 -21.890625 L 18.703125 -18.453125 L 11.453125 -18.453125 L 11.453125 0 L 7.375 0 Z M 7.375 -18.453125 "></path></g></g></g><g fill="#000000" fill-opacity="1"><g transform="translate(228.681847, 190.744178)"><g><path d="M 17.265625 0 L 12.796875 -6.40625 C 12.609375 -6.382812 12.328125 -6.375 11.953125 -6.375 L 7 -6.375 L 7 0 L 2.9375 0 L 2.9375 -21.890625 L 11.953125 -21.890625 C 13.847656 -21.890625 15.5 -21.578125 16.90625 -20.953125 C 18.3125 -20.328125 19.390625 -19.429688 20.140625 -18.265625 C 20.890625 -17.097656 21.265625 -15.710938 21.265625 -14.109375 C 21.265625 -12.460938 20.863281 -11.046875 20.0625 -9.859375 C 19.257812 -8.671875 18.109375 -7.78125 16.609375 -7.1875 L 21.640625 0 Z M 17.171875 -14.109375 C 17.171875 -15.503906 16.710938 -16.578125 15.796875 -17.328125 C 14.878906 -18.078125 13.535156 -18.453125 11.765625 -18.453125 L 7 -18.453125 L 7 -9.734375 L 11.765625 -9.734375 C 13.535156 -9.734375 14.878906 -10.113281 15.796875 -10.875 C 16.710938 -11.632812 17.171875 -12.710938 17.171875 -14.109375 Z M 17.171875 -14.109375 "></path></g></g></g><g fill="#000000" fill-opacity="1"><g transform="translate(251.537013, 190.744178)"><g><path d="M 17.140625 -5.0625 L 6.1875 -5.0625 L 4.03125 0 L -0.15625 0 L 9.703125 -21.890625 L 13.703125 -21.890625 L 23.59375 0 L 19.328125 0 Z M 15.796875 -8.265625 L 11.671875 -17.828125 L 7.5625 -8.265625 Z M 15.796875 -8.265625 "></path></g></g></g><g fill="#000000" fill-opacity="1"><g transform="translate(274.954954, 190.744178)"><g><path d="M 11.953125 -21.890625 C 13.847656 -21.890625 15.5 -21.578125 16.90625 -20.953125 C 18.3125 -20.328125 19.390625 -19.429688 20.140625 -18.265625 C 20.890625 -17.097656 21.265625 -15.710938 21.265625 -14.109375 C 21.265625 -12.523438 20.890625 -11.144531 20.140625 -9.96875 C 19.390625 -8.789062 18.3125 -7.882812 16.90625 -7.25 C 15.5 -6.625 13.847656 -6.3125 11.953125 -6.3125 L 7 -6.3125 L 7 0 L 2.9375 0 L 2.9375 -21.890625 Z M 11.765625 -9.765625 C 13.535156 -9.765625 14.878906 -10.140625 15.796875 -10.890625 C 16.710938 -11.640625 17.171875 -12.710938 17.171875 -14.109375 C 17.171875 -15.503906 16.710938 -16.578125 15.796875 -17.328125 C 14.878906 -18.078125 13.535156 -18.453125 11.765625 -18.453125 L 7 -18.453125 L 7 -9.765625 Z M 11.765625 -9.765625 "></path></g></g></g><path stroke-linecap="butt" transform="matrix(0.75, 0, 0, 0.75, 64.161394, 138.920938)" fill="none" stroke-linejoin="miter" d="M -0.00165018 1.001249 L 326.904621 1.001249 " stroke="#000000" stroke-width="2" stroke-opacity="1" stroke-miterlimit="4"></path><path stroke-linecap="butt" transform="matrix(0.75, 0, 0, 0.75, 65.661394, 219.317417)" fill="none" stroke-linejoin="miter" d="M -0.00165005 0.998653 L 188.790029 0.998653 " stroke="#000000" stroke-width="2" stroke-opacity="1" stroke-miterlimit="4"></path><path stroke-linecap="butt" transform="matrix(0, -0.75, 0.75, 0, 64.158463, 220.814472)" fill="none" stroke-linejoin="miter" d="M -0.00257913 1.002257 L 108.195345 1.002257 " stroke="#000000" stroke-width="2" stroke-opacity="1" stroke-miterlimit="4"></path><path stroke-linecap="butt" transform="matrix(0, -0.75, 0.75, 0, 309.337191, 207.102027)" fill="none" stroke-linejoin="miter" d="M 0.0006196 0.998328 L 88.912084 0.998328 " stroke="#000000" stroke-width="2" stroke-opacity="1" stroke-miterlimit="4"></path></svg>
